{"title":"The Dark Crystal (1982) DVDRip XviD AC3 peaSoup","uid":8877269,"size":1012205306,"categoryP":"video","categoryS":"movies","magnet":"?xt=urn:btih:5d25c64d0fc135d868ab80b175d05f0d4a250fff&amp;dn=The+Dark+Crystal+%281982%29+DVDRip+XviD+AC3+peaSoup&amp;tr=udp%3A%2F%2Ftracker.openbittorrent.com%3A80&amp;tr=udp%3A%2F%2Fopen.demonii.com%3A1337&amp;tr=udp%3A%2F%2Ftracker.coppersurfer.tk%3A6969&amp;tr=udp%3A%2F%2Fexodus.desync.com%3A6969","seeders":14,"leechers":3,"uploader":"peaSoup","files":3,"time":1378240609,"description":" &lt;a href=&quot;http://imageshack.us/a/img5/1736/dxt9.jpg&quot; rel=&quot;nofollow&quot; target=&quot;_NEW&quot;&gt;http://imageshack.us/a/img5/1736/dxt9.jpg&lt;/a&gt;                                            Storyline\n\nAnother planet, another time. 1000 years ago the mysterious Dark Crystal was damaged by one of the Urskeks and an age of chaos has began! The evil race of grotesque birdlike lizards the Skeksis, gnomish dragons who rule their fantastic planet with an iron claw. Meanwhile the orphan Jen, raised in solitude by a race of the peace-loving wizards called the Mystics, embarks on a quest to find the missing shard of the Dark Crystal which gives the Skesis their power and restore the balance of the universe.                                                                           &lt;a href=&quot; http://imageshack.us/a/img13/6307/lj6v.jpg&quot; rel=&quot;nofollow&quot; target=&quot;_NEW&quot;&gt; http://imageshack.us/a/img13/6307/lj6v.jpg&lt;/a&gt;                                          &lt;a href=&quot; http://imageshack.us/a/img545/9897/0orn.jpg&quot; rel=&quot;nofollow&quot; target=&quot;_NEW&quot;&gt; http://imageshack.us/a/img545/9897/0orn.jpg&lt;/a&gt;                                         &lt;a href=&quot; http://imageshack.us/a/img716/9940/uc21.jpg&quot; rel=&quot;nofollow&quot; target=&quot;_NEW&quot;&gt; http://imageshack.us/a/img716/9940/uc21.jpg&lt;/a&gt;                                         &lt;a href=&quot; http://imageshack.us/a/img585/1116/avp7.jpg&quot; rel=&quot;nofollow&quot; target=&quot;_NEW&quot;&gt; http://imageshack.us/a/img585/1116/avp7.jpg&lt;/a&gt;                         &lt;a href=&quot; http://imageshack.us/a/img823/2655/6rpg.jpg&quot; rel=&quot;nofollow&quot; target=&quot;_NEW&quot;&gt; http://imageshack.us/a/img823/2655/6rpg.jpg&lt;/a&gt;                                        Format                                   : AVI\nFormat/Info                              : Audio Video Interleave\nFile size                                : 957 MiB\nDuration                                 : 1h 29mn\nOverall bit rate                         : 1 498 Kbps\nMovie name                               : The Dark Crystal (1982) DVDRip XviD AC3 peaSoup\nWriting application                      : Lavf53.21.0\nOriginal source form/Name                : DVD_VIDEO\n\nVideo\nID                                       : 0\nFormat                                   : MPEG-4 Visual\nFormat profile                           : Advanced Simple@L5\nFormat settings, BVOP                    : 2\nFormat settings, QPel                    : No\nFormat settings, GMC                     : No warppoints\nFormat settings, Matrix                  : Default (H.263)\nMuxing mode                              : Packed bitstream\nCodec ID                                 : XVID\nCodec ID/Hint                            : XviD\nDuration                                 : 1h 29mn\nBit rate                                 : 1 103 Kbps\nWidth                                    : 720 pixels\nHeight                                   : 308 pixels\nDisplay aspect ratio                     : 2.35:1\nFrame rate                               : 25.000 fps\nColor space                              : YUV\nChroma subsampling                       : 4:2:0\nBit depth                                : 8 bits\nScan type                                : Progressive\nCompression mode                         : Lossy\nBits/(Pixel*Frame)                       : 0.199\nStream size                              : 705 MiB (74%)\nWriting library                          : XviD 1.2.1 (UTC 2008-12-04)\n\nAudio\nID                                       : 1\nFormat                                   : AC-3\nFormat/Info                              : Audio Coding 3\nMode extension                           : CM (complete main)\nFormat settings, Endianness              : Big\nCodec ID                                 : 2000\nDuration                                 : 1h 29mn\nBit rate mode                            : Constant\nBit rate                                 : 384 Kbps\nChannel(s)                               : 6 channels\nChannel positions                        : Front: L C R, Side: L R, LFE\nSampling rate                            : 48.0 KHz\nBit depth                                : 16 bits\nCompression mode                         : Lossy\nStream size                              : 245 MiB (26%)\nAlignment                                : Aligned on interleaves\nInterleave, duration                     : 32 ms (0.80 video frame)\n\n(Bayimg is down for me at the moment, will edit torrent with cover when it's back up again)","torrent":{"xt":"urn:btih:5d25c64d0fc135d868ab80b175d05f0d4a250fff","amp;dn":"The+Dark+Crystal+%281982%29+DVDRip+XviD+AC3+peaSoup","amp;tr":["udp%3A%2F%2Ftracker.openbittorrent.com%3A80","udp%3A%2F%2Fopen.demonii.com%3A1337","udp%3A%2F%2Ftracker.coppersurfer.tk%3A6969","udp%3A%2F%2Fexodus.desync.com%3A6969"],"infoHash":"5d25c64d0fc135d868ab80b175d05f0d4a250fff","infoHashBuffer":{"type":"Buffer","data":[93,37,198,77,15,193,53,216,104,171,128,177,117,208,95,13,74,37,15,255]},"announce":[],"urlList":[]}}